#!OML:ASF E:/inclinewalkrobotboard/Project1/Captureday1/Session1/subject1.ASF
:FULLY-SPECIFIED
:DEGREES
276
root 0 0 0 -3.448890244493839 3.4062862614391705 2.5352406715251803
lowerback 11.730514283814795 -0.9114474492283708 -3.5766211309561813
upperback 1.2595286711850378 -1.4627250567098804 1.093531240544695
thorax -5.200446628213398 -0.6266483554191635 3.294143987676632
lowerneck -17.683322206669203 -2.876826443342318 -2.4608554713994155
upperneck 17.644984629401115 -3.148146116908245 -0.35879600867775263
head 8.305310270819996 -1.6918448959699954 -0.08212598093608792
rclavicle 3.159891384454526E-15 1.6724979994684628E-15
rhumerus -50.525287954238784 -18.96672123911949 -73.6030726086353
rradius 23.47636170393072
rwrist -1.7747096397091333
rhand -21.426075941521358 27.671571662416675
rfingers 7.125020000000054
rthumb 4.933575905384018 -2.5722799457067396
lclavicle 1.1998581666240476E-16 -7.661336346776556E-15
lhumerus -34.92195292693942 -1.7080022139205422 84.38628382479651
lradius 29.086525510001984
lwrist 9.45244110614113
lhand -31.317772323822943 24.73045969436612
lfingers 7.12502000000004
lthumb -4.538164543816102 55.36051569038024
rfemur -28.75522893645794 28.368065929018854 41.65977337608511
rtibia 23.536865004896192
rfoot -8.291022269458589 -13.290038725096185
rtoes -3.4028238003791564
lfemur -1.669385095018562 -2.457672548642565 -22.15883317071562
ltibia 37.83687510013913
lfoot -3.025417035658606 -7.512671504589271
ltoes -12.092418529742082
277
root 0 0 0 -3.4669458843834278 3.0559949063648872 2.4580385134944382
lowerback 11.754482758164603 -0.8740465926252621 -3.471979881315459
upperback 1.2627365794867682 -1.4050090343686252 1.1057889853350047
thorax -5.21906685918044 -0.5987435105442571 3.2419947268391467
lowerneck -17.66968058829897 -2.883396444671223 -2.4340015515615185
upperneck 17.66788211030711 -3.1657201890004956 -0.36261743803805757
head 8.307882078978235 -1.6987677188282415 -0.08841390332563925
rclavicle 3.354967990232566E-15 1.8635359525290315E-15
rhumerus -50.48823922920475 -18.95959853598126 -73.88691850823386
rradius 23.435035366482726
rwrist -1.871819336609235
rhand -21.397533627883693 27.623029262885005
rfingers 7.125020000000054
rthumb 4.961086299461112 -2.618400274532833
lclavicle 2.1068140355336212E-16 -7.492852560529345E-15
lhumerus -35.04427038661204 -1.7140613684644368 84.47568885292102
lradius 29.081232503742605
lwrist 9.552438216626701
lhand -31.228476140008073 24.759735928209437
lfingers 7.125020000000039
lthumb -4.453061406808342 55.37189396878856
rfemur -28.579833174150068 28.15049804132704 41.57426707707066
rtibia 23.564774560944358
rfoot -8.412359141595871 -13.105688632820328
rtoes -3.337096400503061
lfemur -4.691950375337569 -0.8011367532874232 -21.592495769374104
ltibia 44.50376093563565
lfoot -0.5475088765302871 -9.415316675156266
ltoes -13.699346113161235
278
root 0 0 0 -3.5164323554444934 2.4841758159159326 2.3091501907523053
lowerback 11.797437011762991 -0.8071971225103314 -3.277897504637072
upperback 1.2715542313915815 -1.2997569109886007 1.1280521617077073
thorax -5.246821192175225 -0.5479702381504867 3.14425259986176
lowerneck -17.65028266778122 -2.8972916862082503 -2.39062156781165
upperneck 17.707962009647 -3.1999079472051783 -0.36284980363872954
head 8.314643920740304 -1.7121421819992473 -0.09787380050956673
rclavicle 3.6772115167817545E-15 2.159827395569962E-15
rhumerus -50.409091371070794 -18.949708336792813 -74.34399411628185
rradius 23.37479945887078
rwrist -2.0297849787547513
rhand -21.35040571080364 27.54463665638574
rfingers 7.125020000000054
rthumb 5.006595799781209 -2.6925621584107926
lclavicle 3.401178753931549E-16 -7.234706369103333E-15
lhumerus -35.26724194675724 -1.7207808393495654 84.60059305234267
lradius 29.062346521781645
lwrist 9.680814499202548
lhand -31.096310874613003 24.78499064845725
lfingers 7.125020000000039
lthumb -4.326909332240401 55.37012896508586
rfemur -28.304346976358218 27.815533895759785 41.44435966501001
rtibia 23.6036224355925
rfoot -8.607146618916296 -12.814288212392906
rtoes -3.2438162963653134
lfemur -7.9086449403103956 1.1516225760205092 -20.306954849068727
ltibia 52.78431666893994
lfoot 2.417919350250269 -12.100471979272715
ltoes -15.27110123727025
279
root 0 0 0 -3.652691013611772 1.59772617615873 2.0133977406879513
lowerback 11.883518139809087 -0.6845207001338589 -2.9063098446678
upperback 1.3007126917295952 -1.1015288589271635 1.169466138846827
thorax -5.281638509691547 -0.4524574914005608 2.953870766730478
lowerneck -17.62609523519327 -2.9255664360486913 -2.3217118208100214
upperneck 17.763481220843868 -3.2641253598019944 -0.34761643741874604
head 8.325286213771543 -1.7371084543294357 -0.11029665300139224
rclavicle 3.828305440214808E-15 2.3058333768705778E-15
rhumerus -50.23403423155142 -18.930059239425848 -74.83071335713748
rradius 23.344009181447024
rwrist -2.25778332243323
rhand -21.304952901812946 27.45886008491253
rfingers 7.125020000000054
rthumb 5.050487562145271 -2.775417156135987
lclavicle 3.2831747677558064E-16 -7.011456740676573E-15
lhumerus -35.533350396505085 -1.751485525758321 84.7262602649216
lradius 29.06718666183021
lwrist 9.912312191525075
lhand -30.913626033632305 24.840871177777238
lfingers 7.125020000000039
lthumb -4.153452713345047 55.38631127451505
rfemur -27.972937846440473 27.471057883988692 41.30575577082092
rtibia 23.644857805172137
rfoot -8.798969169540504 -12.487269285943551
rtoes -3.0990825507145594
lfemur -9.248153266945792 2.11841557272027 -18.595262308074016
ltibia 58.1326168044056
lfoot 4.195395972621672 -14.307689109209281
ltoes -15.702744850832156
